# xmcd
#
# Track frame offsets: 
#        150
#        20193
#        34423
#        63593
#        76058
#        96508
#        124285
#        140215
#        159380
#        174648
#        188953
#
# Disc length: 2923 seconds
#
# Revision: 5
# Processed by: cddbd v1.5.2PL0 Copyright (c) Steve Scherf et al.
# Submitted via: ExactAudioCopyFreeDBPlugin 1.0
#
DISCID=a30b690b
DTITLE=鄭秀文 - Sammi Star Show Disc 2
DYEAR=1998
DGENRE=Blues
TTITLE0=唉聲嘆氣
TTITLE1=顏色…氣味
TTITLE2=Disco Medley 1
TTITLE3=Disco Medley 2
TTITLE4=Disco Medley 3
TTITLE5=一夜成名
TTITLE6=問我
TTITLE7=親密關係
TTITLE8=我們的主題曲
TTITLE9=值得
TTITLE10=捨不得你
EXTD=
EXTT0=
EXTT1=
EXTT2=
EXTT3=
EXTT4=
EXTT5=
EXTT6=
EXTT7=
EXTT8=
EXTT9=
EXTT10=
PLAYORDER=
